<svg
    xmlns="http://www.w3.org/2000/svg"
    viewBox="0 0 24 24"
    id="vector">
    <path
        id="path"
        d="M 11.859 11.293 L 7.757 7.191 C 7.601 7.035 7.348 7.035 7.192 7.191 C 7.036 7.348 7.036 7.601 7.192 7.757 L 11.152 11.717 C 11.308 11.873 11.308 12.126 11.152 12.283 L 7.192 16.242 C 7.036 16.398 7.036 16.652 7.192 16.808 C 7.348 16.964 7.601 16.964 7.757 16.808 L 11.717 12.848 C 11.873 12.692 12.127 12.692 12.283 12.848 L 16.243 16.808 C 16.399 16.964 16.652 16.964 16.809 16.808 C 16.965 16.652 16.965 16.398 16.809 16.242 L 12.849 12.283 C 12.692 12.126 12.692 11.873 12.849 11.717 L 16.809 7.757 C 16.965 7.601 16.965 7.348 16.809 7.191 C 16.652 7.035 16.399 7.035 16.243 7.191 L 12.142 11.293 C 12.064 11.371 11.937 11.371 11.859 11.293 L 11.859 11.293 Z"
        fill="#9ea6b9"
        fill-rule="evenodd"/>
    <path
        id="path_1"
        d="M 4.08 19.92 C 8.454 24.294 15.546 24.294 19.919 19.92 C 24.293 15.546 24.293 8.454 19.919 4.081 C 15.546 -0.293 8.454 -0.293 4.08 4.081 C -0.293 8.454 -0.294 15.546 4.08 19.92 Z M 3.515 20.485 C -1.172 15.799 -1.172 8.201 3.515 3.515 C 8.201 -1.172 15.799 -1.172 20.485 3.515 C 25.172 8.201 25.172 15.799 20.485 20.485 C 15.799 25.172 8.201 25.172 3.515 20.485 Z"
        fill="#00000000"/>
</svg>
