<svg
    xmlns="http://www.w3.org/2000/svg"
    viewBox="0 0 24 24"
    id="vector">
    <defs>
        <clipPath id="clip_path">
            <path d="M 0 0 L 24 0 L 24 24 L 0 24 Z"/>
        </clipPath>
    </defs>
    <g id="group">
        <path
            id="path"
            clip-path="url(#clip_path)"
            d="M 8 5 L 15.795 5 C 16.91 5 17.314 5.116 17.721 5.334 C 18.128 5.552 18.448 5.872 18.666 6.279 C 18.884 6.686 19 7.09 19 8.205 L 19 16 C 19 16.265 19.105 16.52 19.293 16.707 C 19.48 16.895 19.735 17 20 17 C 20.265 17 20.52 16.895 20.707 16.707 C 20.895 16.52 21 16.265 21 16 L 21 8.128 C 21 6.345 20.814 5.698 20.466 5.046 C 20.125 4.402 19.598 3.875 18.954 3.534 C 18.302 3.186 17.655 3 15.872 3 L 8 3 C 7.735 3 7.48 3.105 7.293 3.293 C 7.105 3.48 7 3.735 7 4 C 7 4.265 7.105 4.52 7.293 4.707 C 7.48 4.895 7.735 5 8 5 Z M 15.721 7.334 C 15.314 7.116 14.91 7 13.795 7 L 6.205 7 C 5.09 7 4.686 7.116 4.279 7.334 C 3.876 7.547 3.547 7.876 3.334 8.279 C 3.116 8.686 3 9.09 3 10.205 L 3 17.795 C 3 18.909 3.116 19.314 3.334 19.721 C 3.552 20.128 3.872 20.448 4.279 20.666 C 4.686 20.884 5.09 21 6.205 21 L 13.795 21 C 14.909 21 15.314 20.884 15.721 20.666 C 16.128 20.448 16.448 20.128 16.666 19.721 C 16.884 19.314 17 18.91 17 17.795 L 17 10.205 C 17 9.09 16.884 8.686 16.666 8.279 C 16.453 7.876 16.124 7.547 15.721 7.334 Z"
            fill="#000000"
            fill-rule="evenodd"/>
    </g>
</svg>
