<svg
    xmlns="http://www.w3.org/2000/svg"
    viewBox="0 0 960 960"
    id="vector">
    <path
        id="path"
        d="M 720 560 L 720 440 L 600 440 L 600 360 L 720 360 L 720 240 L 800 240 L 800 360 L 920 360 L 920 440 L 800 440 L 800 560 L 720 560 Z M 360 480 Q 294 480 247 433 Q 200 386 200 320 Q 200 254 247 207 Q 294 160 360 160 Q 426 160 473 207 Q 520 254 520 320 Q 520 386 473 433 Q 426 480 360 480 Z M 40 800 L 40 688 Q 40 654 57.5 625.5 Q 75 597 104 582 Q 166 551 230 535.5 Q 294 520 360 520 Q 426 520 490 535.5 Q 554 551 616 582 Q 645 597 662.5 625.5 Q 680 654 680 688 L 680 800 L 40 800 Z M 120 720 L 600 720 L 600 688 Q 600 677 594.5 668 Q 589 659 580 654 Q 526 627 471 613.5 Q 416 600 360 600 Q 304 600 249 613.5 Q 194 627 140 654 Q 131 659 125.5 668 Q 120 677 120 688 L 120 720 Z M 360 400 Q 393 400 416.5 376.5 Q 440 353 440 320 Q 440 287 416.5 263.5 Q 393 240 360 240 Q 327 240 303.5 263.5 Q 280 287 280 320 Q 280 353 303.5 376.5 Q 327 400 360 400 Z M 360 320 Z M 360 720 Z"
        fill="#e3e3e3"/>
</svg>
