<svg
    xmlns="http://www.w3.org/2000/svg"
    viewBox="0 0 960 960"
    id="vector">
    <path
        id="path"
        d="M 280 840 Q 247 840 223.5 816.5 Q 200 793 200 760 L 200 240 L 160 240 L 160 160 L 360 160 L 360 120 L 600 120 L 600 160 L 800 160 L 800 240 L 760 240 L 760 760 Q 760 793 736.5 816.5 Q 713 840 680 840 L 280 840 Z M 680 240 L 280 240 L 280 760 L 680 760 L 680 240 Z M 360 680 L 440 680 L 440 320 L 360 320 L 360 680 Z M 520 680 L 600 680 L 600 320 L 520 320 L 520 680 Z M 280 240 L 280 760 L 280 240 Z"
        fill="#e3e3e3"/>
</svg>
