<svg
    xmlns="http://www.w3.org/2000/svg"
    viewBox="0 0 960 960"
    id="vector">
    <path
        id="path"
        d="M 480 880 Q 337 880 227 790 Q 117 700 88 560 L 170 560 Q 198 666 284 733 Q 370 800 480 800 Q 566 800 640 757.5 Q 714 715 756 640 L 640 640 L 640 560 L 880 560 L 880 800 L 800 800 L 800 720 Q 743 796 659 838 Q 575 880 480 880 Z M 480 600 Q 430 600 395 565 Q 360 530 360 480 Q 360 430 395 395 Q 430 360 480 360 Q 530 360 565 395 Q 600 430 600 480 Q 600 530 565 565 Q 530 600 480 600 Z M 80 400 L 80 160 L 160 160 L 160 240 Q 217 164 301 122 Q 385 80 480 80 Q 623 80 733 170 Q 843 260 872 400 L 790 400 Q 762 294 676 227 Q 590 160 480 160 Q 394 160 320 202.5 Q 246 245 204 320 L 320 320 L 320 400 L 80 400 Z"
        fill="#e3e3e3"/>
</svg>
