<svg width="64" height="64" viewBox="0 0 64 64" fill="none" xmlns="http://www.w3.org/2000/svg">
<path d="M43.7867 21.2C50.2933 27.7067 50.2933 38.2667 43.7867 44.7733C37.28 51.28 26.72 51.28 20.2133 44.7733C13.7067 38.2667 13.7067 27.7067 20.2133 21.2C26.72 14.6933 37.28 14.6933 43.7867 21.2Z" stroke="url(#paint0_linear_7_25)" stroke-width="4" stroke-linecap="round" stroke-linejoin="round"/>
<path d="M22 57.7067C16.6666 55.5733 12 51.7067 8.90664 46.3467C5.86664 41.0933 4.85331 35.2533 5.57331 29.68" stroke="url(#paint1_linear_7_25)" stroke-width="4" stroke-linecap="round" stroke-linejoin="round"/>
<path d="M15.5999 11.9466C20.1333 8.39994 25.8133 6.2933 32 6.2933C38.0533 6.2933 43.6267 8.34658 48.1067 11.7599" stroke="url(#paint2_linear_7_25)" stroke-width="4" stroke-linecap="round" stroke-linejoin="round"/>
<path d="M42 57.7067C47.3333 55.5733 52 51.7067 55.0933 46.3467C58.1333 41.0933 59.1467 35.2533 58.4267 29.68" stroke="url(#paint3_linear_7_25)" stroke-width="4" stroke-linecap="round" stroke-linejoin="round"/>
<defs>
<linearGradient id="paint0_linear_7_25" x1="32" y1="16.32" x2="32" y2="49.6533" gradientUnits="userSpaceOnUse">
<stop stop-color="#00A3E9"/>
</linearGradient>
<linearGradient id="paint1_linear_7_25" x1="13.6758" y1="29.68" x2="13.6758" y2="57.7067" gradientUnits="userSpaceOnUse">
<stop offset="1" stop-color="#7ADF2A"/>
</linearGradient>
<linearGradient id="paint2_linear_7_25" x1="31.8533" y1="6.2933" x2="31.8533" y2="11.9466" gradientUnits="userSpaceOnUse">
<stop offset="1" stop-color="#FF0080"/>
</linearGradient>
<linearGradient id="paint3_linear_7_25" x1="50.3242" y1="29.68" x2="50.3242" y2="57.7067" gradientUnits="userSpaceOnUse">
<stop offset="1" stop-color="#FF8A00"/>
</linearGradient>
</defs>
</svg>
