<svg
    xmlns="http://www.w3.org/2000/svg"
    viewBox="0 0 960 960"
    id="vector">
    <path
        id="path"
        d="M 480 880 Q 397 880 324 848.5 Q 251 817 197 763 Q 143 709 111.5 636 Q 80 563 80 480 Q 80 397 111.5 324 Q 143 251 197 197 Q 251 143 324 111.5 Q 397 80 480 80 Q 563 80 636 111.5 Q 709 143 763 197 Q 817 251 848.5 324 Q 880 397 880 480 Q 880 563 848.5 636 Q 817 709 763 763 Q 709 817 636 848.5 Q 563 880 480 880 Z M 480 800 Q 534 800 584 782.5 Q 634 765 676 732 L 228 284 Q 195 326 177.5 376 Q 160 426 160 480 Q 160 614 253 707 Q 346 800 480 800 Z M 732 676 Q 765 634 782.5 584 Q 800 534 800 480 Q 800 346 707 253 Q 614 160 480 160 Q 426 160 376 177.5 Q 326 195 284 228 L 732 676 Z"
        fill="#e3e3e3"/>
</svg>
